<svg xmlns="http://www.w3.org/2000/svg" width="15000" height="8000" style="background:#f8fafc; font-family:sans-serif;"><style>
    text { font-family: 'Inter', sans-serif; user-select: none; }
    .attr-text { font-size: 11px; fill: #334155; font-weight: 600; text-anchor: middle; dominant-baseline: middle; }
    .attr-text.pk { text-decoration: underline; font-weight: 700; }
    .rel-text { font-size: 11px; fill: #0f766e; font-weight: 700; text-anchor: middle; dominant-baseline: middle; }
    .card-text { font-size: 14px; fill: #ef4444; font-weight: 700; }
    line { stroke: #94a3b8; }
    ellipse { fill: #f1f5f9; stroke: #475569; }
    polygon { fill: #ccfbf1; stroke: #0f766e; }
  </style>
    <g id="lines"><line x1="4225.435961958469" y1="2471.7308985015025" x2="4365.435961958469" y2="2471.7308985015025" stroke="#94a3b8" stroke-width="1.5"></line><ellipse cx="4365.435961958469" cy="2471.7308985015025" rx="55" ry="20" fill="#f1f5f9" stroke="#475569" stroke-width="1.5"></ellipse><text x="4365.435961958469" y="2471.7308985015025" class="attr-text pk">rol_ID</text><line x1="4225.435961958469" y1="2471.7308985015025" x2="4225.435961958469" y2="2581.7308985015025" stroke="#94a3b8" stroke-width="1.5"></line><ellipse cx="4225.435961958469" cy="2581.7308985015025" rx="55" ry="20" fill="#f1f5f9" stroke="#475569" stroke-width="1.5"></ellipse><text x="4225.435961958469" y="2581.7308985015025" class="attr-text">rol_Ad</text><line x1="4225.435961958469" y1="2471.7308985015025" x2="4085.4359619584693" y2="2471.7308985015025" stroke="#94a3b8" stroke-width="1.5"></line><ellipse cx="4085.4359619584693" cy="2471.7308985015025" rx="55" ry="20" fill="#f1f5f9" stroke="#475569" stroke-width="1.5"></ellipse><text x="4085.4359619584693" y="2471.7308985015025" class="attr-text">rol_Aciklama</text><line x1="4225.435961958469" y1="2471.7308985015025" x2="4225.435961958469" y2="2361.7308985015025" stroke="#94a3b8" stroke-width="1.5"></line><ellipse cx="4225.435961958469" cy="2361.7308985015025" rx="55" ry="20" fill="#f1f5f9" stroke="#475569" stroke-width="1.5"></ellipse><text x="4225.435961958469" y="2361.7308985015025" class="attr-text">rol_Olusturma..</text><line x1="4287.343386971293" y1="2937.7115239853288" x2="4427.343386971293" y2="2937.7115239853288" stroke="#94a3b8" stroke-width="1.5"></line><ellipse cx="4427.343386971293" cy="2937.7115239853288" rx="55" ry="20" fill="#f1f5f9" stroke="#475569" stroke-width="1.5"></ellipse><text x="4427.343386971293" y="2937.7115239853288" class="attr-text pk">kul_ID</text><line x1="4287.343386971293" y1="2937.7115239853288" x2="4386.33833633741" y2="3015.493269915849" stroke="#94a3b8" stroke-width="1.5"></line><ellipse cx="4386.33833633741" cy="3015.493269915849" rx="55" ry="20" fill="#f1f5f9" stroke="#475569" stroke-width="1.5"></ellipse><text x="4386.33833633741" y="3015.493269915849" class="attr-text">kul_RolID</text><line x1="4287.343386971293" y1="2937.7115239853288" x2="4287.343386971293" y2="3047.7115239853288" stroke="#94a3b8" stroke-width="1.5"></line><ellipse cx="4287.343386971293" cy="3047.7115239853288" rx="55" ry="20" fill="#f1f5f9" stroke="#475569" stroke-width="1.5"></ellipse><text x="4287.343386971293" y="3047.7115239853288" class="attr-text">kul_Ad</text><line x1="4287.343386971293" y1="2937.7115239853288" x2="4188.348437605176" y2="3015.493269915849" stroke="#94a3b8" stroke-width="1.5"></line><ellipse cx="4188.348437605176" cy="3015.493269915849" rx="55" ry="20" fill="#f1f5f9" stroke="#475569" stroke-width="1.5"></ellipse><text x="4188.348437605176" y="3015.493269915849" class="attr-text">kul_Soyad</text><line x1="4287.343386971293" y1="2937.7115239853288" x2="4147.343386971293" y2="2937.7115239853288" stroke="#94a3b8" stroke-width="1.5"></line><ellipse cx="4147.343386971293" cy="2937.7115239853288" rx="55" ry="20" fill="#f1f5f9" stroke="#475569" stroke-width="1.5"></ellipse><text x="4147.343386971293" y="2937.7115239853288" class="attr-text">kul_Email</text><line x1="4287.343386971293" y1="2937.7115239853288" x2="4188.348437605176" y2="2859.9297780548086" stroke="#94a3b8" stroke-width="1.5"></line><ellipse cx="4188.348437605176" cy="2859.9297780548086" rx="55" ry="20" fill="#f1f5f9" stroke="#475569" stroke-width="1.5"></ellipse><ellipse cx="4188.348437605176" cy="2859.9297780548086" rx="49" ry="16" fill="none" stroke="#475569" stroke-width="1.5"></ellipse><text x="4188.348437605176" y="2859.9297780548086" class="attr-text">kul_Telefon</text><line x1="4287.343386971293" y1="2937.7115239853288" x2="4287.343386971293" y2="2827.7115239853288" stroke="#94a3b8" stroke-width="1.5"></line><ellipse cx="4287.343386971293" cy="2827.7115239853288" rx="55" ry="20" fill="#f1f5f9" stroke="#475569" stroke-width="1.5"></ellipse><text x="4287.343386971293" y="2827.7115239853288" class="attr-text">kul_AktifMi</text><line x1="4287.343386971293" y1="2937.7115239853288" x2="4386.33833633741" y2="2859.9297780548086" stroke="#94a3b8" stroke-width="1.5"></line><ellipse cx="4386.33833633741" cy="2859.9297780548086" rx="55" ry="20" fill="#f1f5f9" stroke="#475569" stroke-width="1.5"></ellipse><text x="4386.33833633741" y="2859.9297780548086" class="attr-text">kul_Olusturma..</text><line x1="5470.6889227394295" y1="1006.938642652842" x2="5610.6889227394295" y2="1006.938642652842" stroke="#94a3b8" stroke-width="1.5"></line><ellipse cx="5610.6889227394295" cy="1006.938642652842" rx="55" ry="20" fill="#f1f5f9" stroke="#475569" stroke-width="1.5"></ellipse><text x="5610.6889227394295" y="1006.938642652842" class="attr-text pk">adr_ID</text><line x1="5470.6889227394295" y1="1006.938642652842" x2="5569.6838721055465" y2="1084.7203885833621" stroke="#94a3b8" stroke-width="1.5"></line><ellipse cx="5569.6838721055465" cy="1084.7203885833621" rx="55" ry="20" fill="#f1f5f9" stroke="#475569" stroke-width="1.5"></ellipse><text x="5569.6838721055465" y="1084.7203885833621" class="attr-text">adr_KulID</text><line x1="5470.6889227394295" y1="1006.938642652842" x2="5470.6889227394295" y2="1116.938642652842" stroke="#94a3b8" stroke-width="1.5"></line><ellipse cx="5470.6889227394295" cy="1116.938642652842" rx="55" ry="20" fill="#f1f5f9" stroke="#475569" stroke-width="1.5"></ellipse><text x="5470.6889227394295" y="1116.938642652842" class="attr-text">adr_IlAd</text><line x1="5470.6889227394295" y1="1006.938642652842" x2="5371.6939733733125" y2="1084.7203885833621" stroke="#94a3b8" stroke-width="1.5"></line><ellipse cx="5371.6939733733125" cy="1084.7203885833621" rx="55" ry="20" fill="#f1f5f9" stroke="#475569" stroke-width="1.5"></ellipse><text x="5371.6939733733125" y="1084.7203885833621" class="attr-text">adr_IlceAd</text><line x1="5470.6889227394295" y1="1006.938642652842" x2="5330.6889227394295" y2="1006.938642652842" stroke="#94a3b8" stroke-width="1.5"></line><ellipse cx="5330.6889227394295" cy="1006.938642652842" rx="55" ry="20" fill="#f1f5f9" stroke="#475569" stroke-width="1.5"></ellipse><text x="5330.6889227394295" y="1006.938642652842" class="attr-text">adr_Mahalle</text><line x1="5470.6889227394295" y1="1006.938642652842" x2="5371.6939733733125" y2="929.1568967223218" stroke="#94a3b8" stroke-width="1.5"></line><ellipse cx="5371.6939733733125" cy="929.1568967223218" rx="55" ry="20" fill="#f1f5f9" stroke="#475569" stroke-width="1.5"></ellipse><text x="5371.6939733733125" y="929.1568967223218" class="attr-text">adr_SokakNo</text><line x1="5470.6889227394295" y1="1006.938642652842" x2="5470.6889227394295" y2="896.938642652842" stroke="#94a3b8" stroke-width="1.5"></line><ellipse cx="5470.6889227394295" cy="896.938642652842" rx="55" ry="20" fill="#f1f5f9" stroke="#475569" stroke-width="1.5"></ellipse><text x="5470.6889227394295" y="896.938642652842" class="attr-text">adr_PostaKod</text><line x1="5470.6889227394295" y1="1006.938642652842" x2="5569.6838721055465" y2="929.1568967223217" stroke="#94a3b8" stroke-width="1.5"></line><ellipse cx="5569.6838721055465" cy="929.1568967223217" rx="55" ry="20" fill="#f1f5f9" stroke="#475569" stroke-width="1.5"></ellipse><text x="5569.6838721055465" y="929.1568967223217" class="attr-text">adr_Varsayila..</text><line x1="3871.007538461241" y1="4099.597425685132" x2="4011.007538461241" y2="4099.597425685132" stroke="#94a3b8" stroke-width="1.5"></line><ellipse cx="4011.007538461241" cy="4099.597425685132" rx="55" ry="20" fill="#f1f5f9" stroke="#475569" stroke-width="1.5"></ellipse><text x="4011.007538461241" y="4099.597425685132" class="attr-text pk">mtr_ID</text><line x1="3871.007538461241" y1="4099.597425685132" x2="3941.007538461241" y2="4194.860220101421" stroke="#94a3b8" stroke-width="1.5"></line><ellipse cx="3941.007538461241" cy="4194.860220101421" rx="55" ry="20" fill="#f1f5f9" stroke="#475569" stroke-width="1.5"></ellipse><text x="3941.007538461241" y="4194.860220101421" class="attr-text">mtr_KulID</text><line x1="3871.007538461241" y1="4099.597425685132" x2="3801.007538461241" y2="4194.860220101421" stroke="#94a3b8" stroke-width="1.5"></line><ellipse cx="3801.007538461241" cy="4194.860220101421" rx="55" ry="20" fill="#f1f5f9" stroke="#475569" stroke-width="1.5"></ellipse><text x="3801.007538461241" y="4194.860220101421" class="attr-text">mtr_FirmaAd</text><line x1="3871.007538461241" y1="4099.597425685132" x2="3731.007538461241" y2="4099.597425685132" stroke="#94a3b8" stroke-width="1.5"></line><ellipse cx="3731.007538461241" cy="4099.597425685132" rx="55" ry="20" fill="#f1f5f9" stroke="#475569" stroke-width="1.5"></ellipse><text x="3731.007538461241" y="4099.597425685132" class="attr-text">mtr_VergiNo</text><line x1="3871.007538461241" y1="4099.597425685132" x2="3801.007538461241" y2="4004.334631268844" stroke="#94a3b8" stroke-width="1.5"></line><ellipse cx="3801.007538461241" cy="4004.334631268844" rx="55" ry="20" fill="#f1f5f9" stroke="#475569" stroke-width="1.5"></ellipse><text x="3801.007538461241" y="4004.334631268844" class="attr-text">mtr_KrediLimit</text><line x1="3871.007538461241" y1="4099.597425685132" x2="3941.007538461241" y2="4004.334631268844" stroke="#94a3b8" stroke-width="1.5"></line><ellipse cx="3941.007538461241" cy="4004.334631268844" rx="55" ry="20" fill="#f1f5f9" stroke="#475569" stroke-width="1.5"></ellipse><text x="3941.007538461241" y="4004.334631268844" class="attr-text">mtr_Olusturma..</text><line x1="3716.5360683379745" y1="2426.340153172655" x2="3856.5360683379745" y2="2426.340153172655" stroke="#94a3b8" stroke-width="1.5"></line><ellipse cx="3856.5360683379745" cy="2426.340153172655" rx="55" ry="20" fill="#f1f5f9" stroke="#475569" stroke-width="1.5"></ellipse><text x="3856.5360683379745" y="2426.340153172655" class="attr-text pk">bld_ID</text><line x1="3716.5360683379745" y1="2426.340153172655" x2="3786.5360683379745" y2="2521.602947588943" stroke="#94a3b8" stroke-width="1.5"></line><ellipse cx="3786.5360683379745" cy="2521.602947588943" rx="55" ry="20" fill="#f1f5f9" stroke="#475569" stroke-width="1.5"></ellipse><text x="3786.5360683379745" y="2521.602947588943" class="attr-text">bld_KulID</text><line x1="3716.5360683379745" y1="2426.340153172655" x2="3646.5360683379745" y2="2521.602947588943" stroke="#94a3b8" stroke-width="1.5"></line><ellipse cx="3646.5360683379745" cy="2521.602947588943" rx="55" ry="20" fill="#f1f5f9" stroke="#475569" stroke-width="1.5"></ellipse><text x="3646.5360683379745" y="2521.602947588943" class="attr-text">bld_Baslik</text><line x1="3716.5360683379745" y1="2426.340153172655" x2="3576.5360683379745" y2="2426.340153172655" stroke="#94a3b8" stroke-width="1.5"></line><ellipse cx="3576.5360683379745" cy="2426.340153172655" rx="55" ry="20" fill="#f1f5f9" stroke="#475569" stroke-width="1.5"></ellipse><text x="3576.5360683379745" y="2426.340153172655" class="attr-text">bld_Mesaj</text><line x1="3716.5360683379745" y1="2426.340153172655" x2="3646.5360683379745" y2="2331.0773587563667" stroke="#94a3b8" stroke-width="1.5"></line><ellipse cx="3646.5360683379745" cy="2331.0773587563667" rx="55" ry="20" fill="#f1f5f9" stroke="#475569" stroke-width="1.5"></ellipse><text x="3646.5360683379745" y="2331.0773587563667" class="attr-text">bld_OkunduMu</text><line x1="3716.5360683379745" y1="2426.340153172655" x2="3786.5360683379745" y2="2331.0773587563667" stroke="#94a3b8" stroke-width="1.5"></line><ellipse cx="3786.5360683379745" cy="2331.0773587563667" rx="55" ry="20" fill="#f1f5f9" stroke="#475569" stroke-width="1.5"></ellipse><text x="3786.5360683379745" y="2331.0773587563667" class="attr-text">bld_Tur</text><line x1="3091.141018346523" y1="2819.339075239776" x2="3231.141018346523" y2="2819.339075239776" stroke="#94a3b8" stroke-width="1.5"></line><ellipse cx="3231.141018346523" cy="2819.339075239776" rx="55" ry="20" fill="#f1f5f9" stroke="#475569" stroke-width="1.5"></ellipse><text x="3231.141018346523" y="2819.339075239776" class="attr-text pk">slg_ID</text><line x1="3091.141018346523" y1="2819.339075239776" x2="3134.403397559016" y2="2923.9552920322426" stroke="#94a3b8" stroke-width="1.5"></line><ellipse cx="3134.403397559016" cy="2923.9552920322426" rx="55" ry="20" fill="#f1f5f9" stroke="#475569" stroke-width="1.5"></ellipse><text x="3134.403397559016" y="2923.9552920322426" class="attr-text">slg_KulID</text><line x1="3091.141018346523" y1="2819.339075239776" x2="2977.8786391340304" y2="2883.995452991948" stroke="#94a3b8" stroke-width="1.5"></line><ellipse cx="2977.8786391340304" cy="2883.995452991948" rx="55" ry="20" fill="#f1f5f9" stroke="#475569" stroke-width="1.5"></ellipse><text x="2977.8786391340304" y="2883.995452991948" class="attr-text">slg_Eylem</text><line x1="3091.141018346523" y1="2819.339075239776" x2="2977.8786391340304" y2="2754.682697487604" stroke="#94a3b8" stroke-width="1.5"></line><ellipse cx="2977.8786391340304" cy="2754.682697487604" rx="55" ry="20" fill="#f1f5f9" stroke="#475569" stroke-width="1.5"></ellipse><text x="2977.8786391340304" y="2754.682697487604" class="attr-text">slg_TabloAd</text><line x1="3091.141018346523" y1="2819.339075239776" x2="3134.403397559016" y2="2714.722858447309" stroke="#94a3b8" stroke-width="1.5"></line><ellipse cx="3134.403397559016" cy="2714.722858447309" rx="55" ry="20" fill="#f1f5f9" stroke="#475569" stroke-width="1.5"></ellipse><text x="3134.403397559016" y="2714.722858447309" class="attr-text">slg_LogZaman</text><line x1="3699.6795877233903" y1="3457.4255490095507" x2="3839.6795877233903" y2="3457.4255490095507" stroke="#94a3b8" stroke-width="1.5"></line><ellipse cx="3839.6795877233903" cy="3457.4255490095507" rx="55" ry="20" fill="#f1f5f9" stroke="#475569" stroke-width="1.5"></ellipse><text x="3839.6795877233903" y="3457.4255490095507" class="attr-text pk">surp_ID</text><line x1="3699.6795877233903" y1="3457.4255490095507" x2="3742.941966935883" y2="3562.0417658020174" stroke="#94a3b8" stroke-width="1.5"></line><ellipse cx="3742.941966935883" cy="3562.0417658020174" rx="55" ry="20" fill="#f1f5f9" stroke="#475569" stroke-width="1.5"></ellipse><text x="3742.941966935883" y="3562.0417658020174" class="attr-text">surp_KulID</text><line x1="3699.6795877233903" y1="3457.4255490095507" x2="3586.4172085108976" y2="3522.0819267617226" stroke="#94a3b8" stroke-width="1.5"></line><ellipse cx="3586.4172085108976" cy="3522.0819267617226" rx="55" ry="20" fill="#f1f5f9" stroke="#475569" stroke-width="1.5"></ellipse><text x="3586.4172085108976" y="3522.0819267617226" class="attr-text">surp_LisansNo</text><line x1="3699.6795877233903" y1="3457.4255490095507" x2="3586.4172085108976" y2="3392.7691712573787" stroke="#94a3b8" stroke-width="1.5"></line><ellipse cx="3586.4172085108976" cy="3392.7691712573787" rx="55" ry="20" fill="#f1f5f9" stroke="#475569" stroke-width="1.5"></ellipse><ellipse cx="3586.4172085108976" cy="3392.7691712573787" rx="49" ry="16" fill="none" stroke="#475569" stroke-width="1.5"></ellipse><text x="3586.4172085108976" y="3392.7691712573787" class="attr-text">surp_LisansTur</text><line x1="3699.6795877233903" y1="3457.4255490095507" x2="3742.941966935883" y2="3352.809332217084" stroke="#94a3b8" stroke-width="1.5"></line><ellipse cx="3742.941966935883" cy="3352.809332217084" rx="55" ry="20" fill="#f1f5f9" stroke="#475569" stroke-width="1.5"></ellipse><text x="3742.941966935883" y="3352.809332217084" class="attr-text">surp_Durum</text><line x1="2115.571576502772" y1="3507.9246578010634" x2="2255.571576502772" y2="3507.9246578010634" stroke="#94a3b8" stroke-width="1.5"></line><ellipse cx="2255.571576502772" cy="3507.9246578010634" rx="55" ry="20" fill="#f1f5f9" stroke="#475569" stroke-width="1.5"></ellipse><text x="2255.571576502772" y="3507.9246578010634" class="attr-text pk">arc_ID</text><line x1="2115.571576502772" y1="3507.9246578010634" x2="2185.571576502772" y2="3603.1874522173516" stroke="#94a3b8" stroke-width="1.5"></line><ellipse cx="2185.571576502772" cy="3603.1874522173516" rx="55" ry="20" fill="#f1f5f9" stroke="#475569" stroke-width="1.5"></ellipse><text x="2185.571576502772" y="3603.1874522173516" class="attr-text">arc_SurpID</text><line x1="2115.571576502772" y1="3507.9246578010634" x2="2045.5715765027721" y2="3603.1874522173516" stroke="#94a3b8" stroke-width="1.5"></line><ellipse cx="2045.5715765027721" cy="3603.1874522173516" rx="55" ry="20" fill="#f1f5f9" stroke="#475569" stroke-width="1.5"></ellipse><text x="2045.5715765027721" y="3603.1874522173516" class="attr-text">arc_Plaka</text><line x1="2115.571576502772" y1="3507.9246578010634" x2="1975.5715765027721" y2="3507.9246578010634" stroke="#94a3b8" stroke-width="1.5"></line><ellipse cx="1975.5715765027721" cy="3507.9246578010634" rx="55" ry="20" fill="#f1f5f9" stroke="#475569" stroke-width="1.5"></ellipse><text x="1975.5715765027721" y="3507.9246578010634" class="attr-text">arc_Marka</text><line x1="2115.571576502772" y1="3507.9246578010634" x2="2045.5715765027721" y2="3412.661863384775" stroke="#94a3b8" stroke-width="1.5"></line><ellipse cx="2045.5715765027721" cy="3412.661863384775" rx="55" ry="20" fill="#f1f5f9" stroke="#475569" stroke-width="1.5"></ellipse><text x="2045.5715765027721" y="3412.661863384775" class="attr-text">arc_Model</text><line x1="2115.571576502772" y1="3507.9246578010634" x2="2185.571576502772" y2="3412.661863384775" stroke="#94a3b8" stroke-width="1.5"></line><ellipse cx="2185.571576502772" cy="3412.661863384775" rx="55" ry="20" fill="#f1f5f9" stroke="#475569" stroke-width="1.5" stroke-dasharray="5,4"></ellipse><text x="2185.571576502772" y="3412.661863384775" class="attr-text">arc_KapasiteKg</text><line x1="3527.653393367895" y1="1200.0753492678489" x2="3667.653393367895" y2="1200.0753492678489" stroke="#94a3b8" stroke-width="1.5"></line><ellipse cx="3667.653393367895" cy="1200.0753492678489" rx="55" ry="20" fill="#f1f5f9" stroke="#475569" stroke-width="1.5"></ellipse><text x="3667.653393367895" y="1200.0753492678489" class="attr-text pk">guz_ID</text><line x1="3527.653393367895" y1="1200.0753492678489" x2="3527.653393367895" y2="1310.0753492678489" stroke="#94a3b8" stroke-width="1.5"></line><ellipse cx="3527.653393367895" cy="1310.0753492678489" rx="55" ry="20" fill="#f1f5f9" stroke="#475569" stroke-width="1.5"></ellipse><text x="3527.653393367895" y="1310.0753492678489" class="attr-text">guz_Ad</text><line x1="3527.653393367895" y1="1200.0753492678489" x2="3387.653393367895" y2="1200.0753492678489" stroke="#94a3b8" stroke-width="1.5"></line><ellipse cx="3387.653393367895" cy="1200.0753492678489" rx="55" ry="20" fill="#f1f5f9" stroke="#475569" stroke-width="1.5" stroke-dasharray="5,4"></ellipse><text x="3387.653393367895" y="1200.0753492678489" class="attr-text">guz_TahminiKm</text><line x1="3527.653393367895" y1="1200.0753492678489" x2="3527.653393367895" y2="1090.0753492678489" stroke="#94a3b8" stroke-width="1.5"></line><ellipse cx="3527.653393367895" cy="1090.0753492678489" rx="55" ry="20" fill="#f1f5f9" stroke="#475569" stroke-width="1.5"></ellipse><text x="3527.653393367895" y="1090.0753492678489" class="attr-text">guz_AktifMi</text><line x1="3434.332974022374" y1="2096.409401223101" x2="3574.332974022374" y2="2096.409401223101" stroke="#94a3b8" stroke-width="1.5"></line><ellipse cx="3574.332974022374" cy="2096.409401223101" rx="55" ry="20" fill="#f1f5f9" stroke="#475569" stroke-width="1.5"></ellipse><text x="3574.332974022374" y="2096.409401223101" class="attr-text pk">srot_ID</text><line x1="3434.332974022374" y1="2096.409401223101" x2="3504.332974022374" y2="2191.6721956393894" stroke="#94a3b8" stroke-width="1.5"></line><ellipse cx="3504.332974022374" cy="2191.6721956393894" rx="55" ry="20" fill="#f1f5f9" stroke="#475569" stroke-width="1.5"></ellipse><text x="3504.332974022374" y="2191.6721956393894" class="attr-text">srot_SurpID</text><line x1="3434.332974022374" y1="2096.409401223101" x2="3364.332974022374" y2="2191.6721956393894" stroke="#94a3b8" stroke-width="1.5"></line><ellipse cx="3364.332974022374" cy="2191.6721956393894" rx="55" ry="20" fill="#f1f5f9" stroke="#475569" stroke-width="1.5"></ellipse><text x="3364.332974022374" y="2191.6721956393894" class="attr-text">srot_GuzID</text><line x1="3434.332974022374" y1="2096.409401223101" x2="3294.332974022374" y2="2096.409401223101" stroke="#94a3b8" stroke-width="1.5"></line><ellipse cx="3294.332974022374" cy="2096.409401223101" rx="55" ry="20" fill="#f1f5f9" stroke="#475569" stroke-width="1.5"></ellipse><text x="3294.332974022374" y="2096.409401223101" class="attr-text">srot_ArcID</text><line x1="3434.332974022374" y1="2096.409401223101" x2="3364.332974022374" y2="2001.146606806813" stroke="#94a3b8" stroke-width="1.5"></line><ellipse cx="3364.332974022374" cy="2001.146606806813" rx="55" ry="20" fill="#f1f5f9" stroke="#475569" stroke-width="1.5"></ellipse><text x="3364.332974022374" y="2001.146606806813" class="attr-text">srot_Baslangi..</text><line x1="3434.332974022374" y1="2096.409401223101" x2="3504.332974022374" y2="2001.146606806813" stroke="#94a3b8" stroke-width="1.5"></line><ellipse cx="3504.332974022374" cy="2001.146606806813" rx="55" ry="20" fill="#f1f5f9" stroke="#475569" stroke-width="1.5"></ellipse><text x="3504.332974022374" y="2001.146606806813" class="attr-text">srot_Durum</text><line x1="4470" y1="1430" x2="4610" y2="1430" stroke="#94a3b8" stroke-width="1.5"></line><ellipse cx="4610" cy="1430" rx="55" ry="20" fill="#f1f5f9" stroke="#475569" stroke-width="1.5"></ellipse><text x="4610" y="1430" class="attr-text pk">ktk_ID</text><line x1="4470" y1="1430" x2="4513.262379212492" y2="1534.616216792467" stroke="#94a3b8" stroke-width="1.5"></line><ellipse cx="4513.262379212492" cy="1534.616216792467" rx="55" ry="20" fill="#f1f5f9" stroke="#475569" stroke-width="1.5"></ellipse><text x="4513.262379212492" y="1534.616216792467" class="attr-text">ktk_SrotID</text><line x1="4470" y1="1430" x2="4356.737620787508" y2="1494.6563777521721" stroke="#94a3b8" stroke-width="1.5"></line><ellipse cx="4356.737620787508" cy="1494.6563777521721" rx="55" ry="20" fill="#f1f5f9" stroke="#475569" stroke-width="1.5"></ellipse><text x="4356.737620787508" y="1494.6563777521721" class="attr-text">ktk_Enlem</text><line x1="4470" y1="1430" x2="4356.737620787508" y2="1365.343622247828" stroke="#94a3b8" stroke-width="1.5"></line><ellipse cx="4356.737620787508" cy="1365.343622247828" rx="55" ry="20" fill="#f1f5f9" stroke="#475569" stroke-width="1.5"></ellipse><text x="4356.737620787508" y="1365.343622247828" class="attr-text">ktk_Boylam</text><line x1="4470" y1="1430" x2="4513.262379212492" y2="1325.383783207533" stroke="#94a3b8" stroke-width="1.5"></line><ellipse cx="4513.262379212492" cy="1325.383783207533" rx="55" ry="20" fill="#f1f5f9" stroke="#475569" stroke-width="1.5" stroke-dasharray="5,4"></ellipse><text x="4513.262379212492" y="1325.383783207533" class="attr-text">ktk_Hiz</text><line x1="4524.376394097198" y1="2141.4327210909196" x2="4664.376394097198" y2="2141.4327210909196" stroke="#94a3b8" stroke-width="1.5"></line><ellipse cx="4664.376394097198" cy="2141.4327210909196" rx="55" ry="20" fill="#f1f5f9" stroke="#475569" stroke-width="1.5"></ellipse><text x="4664.376394097198" y="2141.4327210909196" class="attr-text pk">vtks_ID</text><line x1="4524.376394097198" y1="2141.4327210909196" x2="4524.376394097198" y2="2251.4327210909196" stroke="#94a3b8" stroke-width="1.5"></line><ellipse cx="4524.376394097198" cy="2251.4327210909196" rx="55" ry="20" fill="#f1f5f9" stroke="#475569" stroke-width="1.5"></ellipse><text x="4524.376394097198" y="2251.4327210909196" class="attr-text">vtks_SrotID</text><line x1="4524.376394097198" y1="2141.4327210909196" x2="4384.376394097198" y2="2141.4327210909196" stroke="#94a3b8" stroke-width="1.5"></line><ellipse cx="4384.376394097198" cy="2141.4327210909196" rx="55" ry="20" fill="#f1f5f9" stroke="#475569" stroke-width="1.5"></ellipse><text x="4384.376394097198" y="2141.4327210909196" class="attr-text">vtks_SipID</text><line x1="4524.376394097198" y1="2141.4327210909196" x2="4524.376394097198" y2="2031.4327210909196" stroke="#94a3b8" stroke-width="1.5"></line><ellipse cx="4524.376394097198" cy="2031.4327210909196" rx="55" ry="20" fill="#f1f5f9" stroke="#475569" stroke-width="1.5"></ellipse><text x="4524.376394097198" y="2031.4327210909196" class="attr-text">vtks_TakasTarih</text><line x1="6800.497312236715" y1="1812.613566402669" x2="6940.497312236715" y2="1812.613566402669" stroke="#94a3b8" stroke-width="1.5"></line><ellipse cx="6940.497312236715" cy="1812.613566402669" rx="55" ry="20" fill="#f1f5f9" stroke="#475569" stroke-width="1.5"></ellipse><text x="6940.497312236715" y="1812.613566402669" class="attr-text pk">ukat_ID</text><line x1="6800.497312236715" y1="1812.613566402669" x2="6730.497312236715" y2="1907.8763608189572" stroke="#94a3b8" stroke-width="1.5"></line><ellipse cx="6730.497312236715" cy="1907.8763608189572" rx="55" ry="20" fill="#f1f5f9" stroke="#475569" stroke-width="1.5"></ellipse><text x="6730.497312236715" y="1907.8763608189572" class="attr-text">ukat_Ad</text><line x1="6800.497312236715" y1="1812.613566402669" x2="6730.497312236715" y2="1717.3507719863808" stroke="#94a3b8" stroke-width="1.5"></line><ellipse cx="6730.497312236715" cy="1717.3507719863808" rx="55" ry="20" fill="#f1f5f9" stroke="#475569" stroke-width="1.5"></ellipse><text x="6730.497312236715" y="1717.3507719863808" class="attr-text">ukat_UstKatID</text><line x1="6273.797631375231" y1="2569.832082813887" x2="6413.797631375231" y2="2569.832082813887" stroke="#94a3b8" stroke-width="1.5"></line><ellipse cx="6413.797631375231" cy="2569.832082813887" rx="55" ry="20" fill="#f1f5f9" stroke="#475569" stroke-width="1.5"></ellipse><text x="6413.797631375231" y="2569.832082813887" class="attr-text pk">urn_ID</text><line x1="6273.797631375231" y1="2569.832082813887" x2="6317.060010587723" y2="2674.448299606354" stroke="#94a3b8" stroke-width="1.5"></line><ellipse cx="6317.060010587723" cy="2674.448299606354" rx="55" ry="20" fill="#f1f5f9" stroke="#475569" stroke-width="1.5"></ellipse><text x="6317.060010587723" y="2674.448299606354" class="attr-text">urn_KatID</text><line x1="6273.797631375231" y1="2569.832082813887" x2="6160.535252162738" y2="2634.488460566059" stroke="#94a3b8" stroke-width="1.5"></line><ellipse cx="6160.535252162738" cy="2634.488460566059" rx="55" ry="20" fill="#f1f5f9" stroke="#475569" stroke-width="1.5"></ellipse><text x="6160.535252162738" y="2634.488460566059" class="attr-text">urn_Ad</text><line x1="6273.797631375231" y1="2569.832082813887" x2="6160.535252162738" y2="2505.1757050617152" stroke="#94a3b8" stroke-width="1.5"></line><ellipse cx="6160.535252162738" cy="2505.1757050617152" rx="55" ry="20" fill="#f1f5f9" stroke="#475569" stroke-width="1.5"></ellipse><text x="6160.535252162738" y="2505.1757050617152" class="attr-text">urn_BirimFiyat</text><line x1="6273.797631375231" y1="2569.832082813887" x2="6317.060010587723" y2="2465.2158660214204" stroke="#94a3b8" stroke-width="1.5"></line><ellipse cx="6317.060010587723" cy="2465.2158660214204" rx="55" ry="20" fill="#f1f5f9" stroke="#475569" stroke-width="1.5"></ellipse><text x="6317.060010587723" y="2465.2158660214204" class="attr-text">urn_StokAdet</text><line x1="6267.6663073557065" y1="1859.1926813666823" x2="6407.6663073557065" y2="1859.1926813666823" stroke="#94a3b8" stroke-width="1.5"></line><ellipse cx="6407.6663073557065" cy="1859.1926813666823" rx="55" ry="20" fill="#f1f5f9" stroke="#475569" stroke-width="1.5"></ellipse><text x="6407.6663073557065" y="1859.1926813666823" class="attr-text pk">var_ID</text><line x1="6267.6663073557065" y1="1859.1926813666823" x2="6310.928686568199" y2="1963.8088981591493" stroke="#94a3b8" stroke-width="1.5"></line><ellipse cx="6310.928686568199" cy="1963.8088981591493" rx="55" ry="20" fill="#f1f5f9" stroke="#475569" stroke-width="1.5"></ellipse><text x="6310.928686568199" y="1963.8088981591493" class="attr-text">var_UrnID</text><line x1="6267.6663073557065" y1="1859.1926813666823" x2="6154.403928143214" y2="1923.8490591188545" stroke="#94a3b8" stroke-width="1.5"></line><ellipse cx="6154.403928143214" cy="1923.8490591188545" rx="55" ry="20" fill="#f1f5f9" stroke="#475569" stroke-width="1.5"></ellipse><text x="6154.403928143214" y="1923.8490591188545" class="attr-text">var_SeriNo</text><line x1="6267.6663073557065" y1="1859.1926813666823" x2="6154.403928143214" y2="1794.5363036145104" stroke="#94a3b8" stroke-width="1.5"></line><ellipse cx="6154.403928143214" cy="1794.5363036145104" rx="55" ry="20" fill="#f1f5f9" stroke="#475569" stroke-width="1.5"></ellipse><text x="6154.403928143214" y="1794.5363036145104" class="attr-text">var_Kapasite</text><line x1="6267.6663073557065" y1="1859.1926813666823" x2="6310.928686568199" y2="1754.5764645742154" stroke="#94a3b8" stroke-width="1.5"></line><ellipse cx="6310.928686568199" cy="1754.5764645742154" rx="55" ry="20" fill="#f1f5f9" stroke="#475569" stroke-width="1.5"></ellipse><text x="6310.928686568199" y="1754.5764645742154" class="attr-text">var_Durum</text><line x1="5399.489773775474" y1="1767.2228210738215" x2="5539.489773775474" y2="1767.2228210738215" stroke="#94a3b8" stroke-width="1.5"></line><ellipse cx="5539.489773775474" cy="1767.2228210738215" rx="55" ry="20" fill="#f1f5f9" stroke="#475569" stroke-width="1.5"></ellipse><text x="5539.489773775474" y="1767.2228210738215" class="attr-text pk">dep_ID</text><line x1="5399.489773775474" y1="1767.2228210738215" x2="5399.489773775474" y2="1877.2228210738215" stroke="#94a3b8" stroke-width="1.5"></line><ellipse cx="5399.489773775474" cy="1877.2228210738215" rx="55" ry="20" fill="#f1f5f9" stroke="#475569" stroke-width="1.5"></ellipse><text x="5399.489773775474" y="1877.2228210738215" class="attr-text">dep_AdrID</text><line x1="5399.489773775474" y1="1767.2228210738215" x2="5259.489773775474" y2="1767.2228210738215" stroke="#94a3b8" stroke-width="1.5"></line><ellipse cx="5259.489773775474" cy="1767.2228210738215" rx="55" ry="20" fill="#f1f5f9" stroke="#475569" stroke-width="1.5"></ellipse><text x="5259.489773775474" y="1767.2228210738215" class="attr-text">dep_Ad</text><line x1="5399.489773775474" y1="1767.2228210738215" x2="5399.489773775474" y2="1657.2228210738215" stroke="#94a3b8" stroke-width="1.5"></line><ellipse cx="5399.489773775474" cy="1657.2228210738215" rx="55" ry="20" fill="#f1f5f9" stroke="#475569" stroke-width="1.5" stroke-dasharray="5,4"></ellipse><text x="5399.489773775474" y="1657.2228210738215" class="attr-text">dep_KapaLitre</text><line x1="5641.677072546673" y1="2546.495156370957" x2="5781.677072546673" y2="2546.495156370957" stroke="#94a3b8" stroke-width="1.5"></line><ellipse cx="5781.677072546673" cy="2546.495156370957" rx="55" ry="20" fill="#f1f5f9" stroke="#475569" stroke-width="1.5"></ellipse><text x="5781.677072546673" y="2546.495156370957" class="attr-text pk">dst_ID</text><line x1="5641.677072546673" y1="2546.495156370957" x2="5641.677072546673" y2="2656.495156370957" stroke="#94a3b8" stroke-width="1.5"></line><ellipse cx="5641.677072546673" cy="2656.495156370957" rx="55" ry="20" fill="#f1f5f9" stroke="#475569" stroke-width="1.5"></ellipse><text x="5641.677072546673" y="2656.495156370957" class="attr-text">dst_DepID</text><line x1="5641.677072546673" y1="2546.495156370957" x2="5501.677072546673" y2="2546.495156370957" stroke="#94a3b8" stroke-width="1.5"></line><ellipse cx="5501.677072546673" cy="2546.495156370957" rx="55" ry="20" fill="#f1f5f9" stroke="#475569" stroke-width="1.5"></ellipse><text x="5501.677072546673" y="2546.495156370957" class="attr-text">dst_VarID</text><line x1="5641.677072546673" y1="2546.495156370957" x2="5641.677072546673" y2="2436.495156370957" stroke="#94a3b8" stroke-width="1.5"></line><ellipse cx="5641.677072546673" cy="2436.495156370957" rx="55" ry="20" fill="#f1f5f9" stroke="#475569" stroke-width="1.5"></ellipse><text x="5641.677072546673" y="2436.495156370957" class="attr-text">dst_GirisTarih</text><line x1="3080.118769342672" y1="3279.188376704078" x2="3220.118769342672" y2="3279.188376704078" stroke="#94a3b8" stroke-width="1.5"></line><ellipse cx="3220.118769342672" cy="3279.188376704078" rx="55" ry="20" fill="#f1f5f9" stroke="#475569" stroke-width="1.5"></ellipse><text x="3220.118769342672" y="3279.188376704078" class="attr-text pk">kmp_ID</text><line x1="3080.118769342672" y1="3279.188376704078" x2="3123.3811485551646" y2="3383.804593496545" stroke="#94a3b8" stroke-width="1.5"></line><ellipse cx="3123.3811485551646" cy="3383.804593496545" rx="55" ry="20" fill="#f1f5f9" stroke="#475569" stroke-width="1.5"></ellipse><text x="3123.3811485551646" y="3383.804593496545" class="attr-text">kmp_OlusturanID</text><line x1="3080.118769342672" y1="3279.188376704078" x2="2966.856390130179" y2="3343.84475445625" stroke="#94a3b8" stroke-width="1.5"></line><ellipse cx="2966.856390130179" cy="3343.84475445625" rx="55" ry="20" fill="#f1f5f9" stroke="#475569" stroke-width="1.5"></ellipse><text x="2966.856390130179" y="3343.84475445625" class="attr-text">kmp_Ad</text><line x1="3080.118769342672" y1="3279.188376704078" x2="2966.856390130179" y2="3214.531998951906" stroke="#94a3b8" stroke-width="1.5"></line><ellipse cx="2966.856390130179" cy="3214.531998951906" rx="55" ry="20" fill="#f1f5f9" stroke="#475569" stroke-width="1.5"></ellipse><text x="2966.856390130179" y="3214.531998951906" class="attr-text">kmp_IndirimOran</text><line x1="3080.118769342672" y1="3279.188376704078" x2="3123.3811485551646" y2="3174.5721599116114" stroke="#94a3b8" stroke-width="1.5"></line><ellipse cx="3123.3811485551646" cy="3174.5721599116114" rx="55" ry="20" fill="#f1f5f9" stroke="#475569" stroke-width="1.5"></ellipse><text x="3123.3811485551646" y="3174.5721599116114" class="attr-text">kmp_AktifMi</text><line x1="6262.129168153766" y1="3238.146400942006" x2="6402.129168153766" y2="3238.146400942006" stroke="#94a3b8" stroke-width="1.5"></line><ellipse cx="6402.129168153766" cy="3238.146400942006" rx="55" ry="20" fill="#f1f5f9" stroke="#475569" stroke-width="1.5"></ellipse><text x="6402.129168153766" y="3238.146400942006" class="attr-text pk">sip_ID</text><line x1="6262.129168153766" y1="3238.146400942006" x2="6305.391547366258" y2="3342.7626177344728" stroke="#94a3b8" stroke-width="1.5"></line><ellipse cx="6305.391547366258" cy="3342.7626177344728" rx="55" ry="20" fill="#f1f5f9" stroke="#475569" stroke-width="1.5"></ellipse><text x="6305.391547366258" y="3342.7626177344728" class="attr-text">sip_MtrID</text><line x1="6262.129168153766" y1="3238.146400942006" x2="6148.866788941274" y2="3302.802778694178" stroke="#94a3b8" stroke-width="1.5"></line><ellipse cx="6148.866788941274" cy="3302.802778694178" rx="55" ry="20" fill="#f1f5f9" stroke="#475569" stroke-width="1.5"></ellipse><text x="6148.866788941274" y="3302.802778694178" class="attr-text">sip_Durum</text><line x1="6262.129168153766" y1="3238.146400942006" x2="6148.866788941274" y2="3173.490023189834" stroke="#94a3b8" stroke-width="1.5"></line><ellipse cx="6148.866788941274" cy="3173.490023189834" rx="55" ry="20" fill="#f1f5f9" stroke="#475569" stroke-width="1.5"></ellipse><text x="6148.866788941274" y="3173.490023189834" class="attr-text">sip_Olusturma..</text><line x1="6262.129168153766" y1="3238.146400942006" x2="6305.391547366258" y2="3133.5301841495393" stroke="#94a3b8" stroke-width="1.5"></line><ellipse cx="6305.391547366258" cy="3133.5301841495393" rx="55" ry="20" fill="#f1f5f9" stroke="#475569" stroke-width="1.5" stroke-dasharray="5,4"></ellipse><text x="6305.391547366258" y="3133.5301841495393" class="attr-text">sip_TahminiTe..</text><line x1="6930.443486281885" y1="2368.0925749871767" x2="7070.443486281885" y2="2368.0925749871767" stroke="#94a3b8" stroke-width="1.5"></line><ellipse cx="7070.443486281885" cy="2368.0925749871767" rx="55" ry="20" fill="#f1f5f9" stroke="#475569" stroke-width="1.5"></ellipse><text x="7070.443486281885" y="2368.0925749871767" class="attr-text pk">skap_ID</text><line x1="6930.443486281885" y1="2368.0925749871767" x2="6973.705865494378" y2="2472.7087917796434" stroke="#94a3b8" stroke-width="1.5"></line><ellipse cx="6973.705865494378" cy="2472.7087917796434" rx="55" ry="20" fill="#f1f5f9" stroke="#475569" stroke-width="1.5"></ellipse><text x="6973.705865494378" y="2472.7087917796434" class="attr-text">skap_SipID</text><line x1="6930.443486281885" y1="2368.0925749871767" x2="6817.181107069393" y2="2432.7489527393486" stroke="#94a3b8" stroke-width="1.5"></line><ellipse cx="6817.181107069393" cy="2432.7489527393486" rx="55" ry="20" fill="#f1f5f9" stroke="#475569" stroke-width="1.5"></ellipse><text x="6817.181107069393" y="2432.7489527393486" class="attr-text">skap_UrnID</text><line x1="6930.443486281885" y1="2368.0925749871767" x2="6817.181107069393" y2="2303.436197235005" stroke="#94a3b8" stroke-width="1.5"></line><ellipse cx="6817.181107069393" cy="2303.436197235005" rx="55" ry="20" fill="#f1f5f9" stroke="#475569" stroke-width="1.5"></ellipse><text x="6817.181107069393" y="2303.436197235005" class="attr-text">skap_Miktar</text><line x1="6930.443486281885" y1="2368.0925749871767" x2="6973.705865494378" y2="2263.47635819471" stroke="#94a3b8" stroke-width="1.5"></line><ellipse cx="6973.705865494378" cy="2263.47635819471" rx="55" ry="20" fill="#f1f5f9" stroke="#475569" stroke-width="1.5"></ellipse><text x="6973.705865494378" y="2263.47635819471" class="attr-text">skap_BirimFiyat</text><line x1="5235.726579701074" y1="3336.2475852543903" x2="5375.726579701074" y2="3336.2475852543903" stroke="#94a3b8" stroke-width="1.5"></line><ellipse cx="5375.726579701074" cy="3336.2475852543903" rx="55" ry="20" fill="#f1f5f9" stroke="#475569" stroke-width="1.5"></ellipse><text x="5375.726579701074" y="3336.2475852543903" class="attr-text pk">fat_ID</text><line x1="5235.726579701074" y1="3336.2475852543903" x2="5278.988958913566" y2="3440.863802046857" stroke="#94a3b8" stroke-width="1.5"></line><ellipse cx="5278.988958913566" cy="3440.863802046857" rx="55" ry="20" fill="#f1f5f9" stroke="#475569" stroke-width="1.5"></ellipse><text x="5278.988958913566" y="3440.863802046857" class="attr-text">fat_SipID</text><line x1="5235.726579701074" y1="3336.2475852543903" x2="5122.464200488582" y2="3400.903963006562" stroke="#94a3b8" stroke-width="1.5"></line><ellipse cx="5122.464200488582" cy="3400.903963006562" rx="55" ry="20" fill="#f1f5f9" stroke="#475569" stroke-width="1.5"></ellipse><text x="5122.464200488582" y="3400.903963006562" class="attr-text">fat_FaturaNo</text><line x1="5235.726579701074" y1="3336.2475852543903" x2="5122.464200488582" y2="3271.5912075022184" stroke="#94a3b8" stroke-width="1.5"></line><ellipse cx="5122.464200488582" cy="3271.5912075022184" rx="55" ry="20" fill="#f1f5f9" stroke="#475569" stroke-width="1.5" stroke-dasharray="5,4"></ellipse><text x="5122.464200488582" y="3271.5912075022184" class="attr-text">fat_ToplamTutar</text><line x1="5235.726579701074" y1="3336.2475852543903" x2="5278.988958913566" y2="3231.6313684619236" stroke="#94a3b8" stroke-width="1.5"></line><ellipse cx="5278.988958913566" cy="3231.6313684619236" rx="55" ry="20" fill="#f1f5f9" stroke="#475569" stroke-width="1.5"></ellipse><text x="5278.988958913566" y="3231.6313684619236" class="attr-text">fat_OdemeDurum</text><line x1="5410.469314257509" y1="2831.007538461241" x2="5550.469314257509" y2="2831.007538461241" stroke="#94a3b8" stroke-width="1.5"></line><ellipse cx="5550.469314257509" cy="2831.007538461241" rx="55" ry="20" fill="#f1f5f9" stroke="#475569" stroke-width="1.5"></ellipse><text x="5550.469314257509" y="2831.007538461241" class="attr-text pk">ode_ID</text><line x1="5410.469314257509" y1="2831.007538461241" x2="5453.731693470001" y2="2935.6237552537077" stroke="#94a3b8" stroke-width="1.5"></line><ellipse cx="5453.731693470001" cy="2935.6237552537077" rx="55" ry="20" fill="#f1f5f9" stroke="#475569" stroke-width="1.5"></ellipse><text x="5453.731693470001" y="2935.6237552537077" class="attr-text">ode_FatID</text><line x1="5410.469314257509" y1="2831.007538461241" x2="5297.2069350450165" y2="2895.663916213413" stroke="#94a3b8" stroke-width="1.5"></line><ellipse cx="5297.2069350450165" cy="2895.663916213413" rx="55" ry="20" fill="#f1f5f9" stroke="#475569" stroke-width="1.5"></ellipse><text x="5297.2069350450165" y="2895.663916213413" class="attr-text">ode_Tutar</text><line x1="5410.469314257509" y1="2831.007538461241" x2="5297.2069350450165" y2="2766.351160709069" stroke="#94a3b8" stroke-width="1.5"></line><ellipse cx="5297.2069350450165" cy="2766.351160709069" rx="55" ry="20" fill="#f1f5f9" stroke="#475569" stroke-width="1.5"></ellipse><text x="5297.2069350450165" y="2766.351160709069" class="attr-text">ode_Yontem</text><line x1="5410.469314257509" y1="2831.007538461241" x2="5453.731693470001" y2="2726.3913216687743" stroke="#94a3b8" stroke-width="1.5"></line><ellipse cx="5453.731693470001" cy="2726.3913216687743" rx="55" ry="20" fill="#f1f5f9" stroke="#475569" stroke-width="1.5"></ellipse><text x="5453.731693470001" y="2726.3913216687743" class="attr-text">ode_OdemeTarih</text><line x1="4865.375661337452" y1="3127.782568590573" x2="5005.375661337452" y2="3127.782568590573" stroke="#94a3b8" stroke-width="1.5"></line><ellipse cx="5005.375661337452" cy="3127.782568590573" rx="55" ry="20" fill="#f1f5f9" stroke="#475569" stroke-width="1.5"></ellipse><text x="5005.375661337452" y="3127.782568590573" class="attr-text pk">dtp_ID</text><line x1="4865.375661337452" y1="3127.782568590573" x2="4908.638040549944" y2="3232.39878538304" stroke="#94a3b8" stroke-width="1.5"></line><ellipse cx="4908.638040549944" cy="3232.39878538304" rx="55" ry="20" fill="#f1f5f9" stroke="#475569" stroke-width="1.5"></ellipse><text x="4908.638040549944" y="3232.39878538304" class="attr-text">dtp_KulID</text><line x1="4865.375661337452" y1="3127.782568590573" x2="4752.113282124959" y2="3192.438946342745" stroke="#94a3b8" stroke-width="1.5"></line><ellipse cx="4752.113282124959" cy="3192.438946342745" rx="55" ry="20" fill="#f1f5f9" stroke="#475569" stroke-width="1.5"></ellipse><text x="4752.113282124959" y="3192.438946342745" class="attr-text">dtp_SipID</text><line x1="4865.375661337452" y1="3127.782568590573" x2="4752.113282124959" y2="3063.1261908384013" stroke="#94a3b8" stroke-width="1.5"></line><ellipse cx="4752.113282124959" cy="3063.1261908384013" rx="55" ry="20" fill="#f1f5f9" stroke="#475569" stroke-width="1.5"></ellipse><text x="4752.113282124959" y="3063.1261908384013" class="attr-text">dtp_Konu</text><line x1="4865.375661337452" y1="3127.782568590573" x2="4908.638040549944" y2="3023.1663517981065" stroke="#94a3b8" stroke-width="1.5"></line><ellipse cx="4908.638040549944" cy="3023.1663517981065" rx="55" ry="20" fill="#f1f5f9" stroke="#475569" stroke-width="1.5"></ellipse><text x="4908.638040549944" y="3023.1663517981065" class="attr-text">dtp_Durum</text><line x1="4733.552194917687" y1="3517.715828647933" x2="4873.552194917687" y2="3517.715828647933" stroke="#94a3b8" stroke-width="1.5"></line><ellipse cx="4873.552194917687" cy="3517.715828647933" rx="55" ry="20" fill="#f1f5f9" stroke="#475569" stroke-width="1.5"></ellipse><text x="4873.552194917687" y="3517.715828647933" class="attr-text pk">dmsg_ID</text><line x1="4733.552194917687" y1="3517.715828647933" x2="4733.552194917687" y2="3627.715828647933" stroke="#94a3b8" stroke-width="1.5"></line><ellipse cx="4733.552194917687" cy="3627.715828647933" rx="55" ry="20" fill="#f1f5f9" stroke="#475569" stroke-width="1.5"></ellipse><text x="4733.552194917687" y="3627.715828647933" class="attr-text">dmsg_DtpID</text><line x1="4733.552194917687" y1="3517.715828647933" x2="4593.552194917687" y2="3517.715828647933" stroke="#94a3b8" stroke-width="1.5"></line><ellipse cx="4593.552194917687" cy="3517.715828647933" rx="55" ry="20" fill="#f1f5f9" stroke="#475569" stroke-width="1.5"></ellipse><text x="4593.552194917687" y="3517.715828647933" class="attr-text">dmsg_Mesaj</text><line x1="4733.552194917687" y1="3517.715828647933" x2="4733.552194917687" y2="3407.715828647933" stroke="#94a3b8" stroke-width="1.5"></line><ellipse cx="4733.552194917687" cy="3407.715828647933" rx="55" ry="20" fill="#f1f5f9" stroke="#475569" stroke-width="1.5"></ellipse><text x="4733.552194917687" y="3407.715828647933" class="attr-text">dmsg_Gonderim..</text><line x1="4553.27232115931" y1="4179.304637938945" x2="4693.27232115931" y2="4179.304637938945" stroke="#94a3b8" stroke-width="1.5"></line><ellipse cx="4693.27232115931" cy="4179.304637938945" rx="55" ry="20" fill="#f1f5f9" stroke="#475569" stroke-width="1.5"></ellipse><text x="4693.27232115931" y="4179.304637938945" class="attr-text pk">dgl_ID</text><line x1="4553.27232115931" y1="4179.304637938945" x2="4553.27232115931" y2="4289.304637938945" stroke="#94a3b8" stroke-width="1.5"></line><ellipse cx="4553.27232115931" cy="4289.304637938945" rx="55" ry="20" fill="#f1f5f9" stroke="#475569" stroke-width="1.5"></ellipse><text x="4553.27232115931" y="4289.304637938945" class="attr-text">dgl_SipID</text><line x1="4553.27232115931" y1="4179.304637938945" x2="4413.27232115931" y2="4179.304637938945" stroke="#94a3b8" stroke-width="1.5"></line><ellipse cx="4413.27232115931" cy="4179.304637938945" rx="55" ry="20" fill="#f1f5f9" stroke="#475569" stroke-width="1.5"></ellipse><text x="4413.27232115931" y="4179.304637938945" class="attr-text">dgl_Puan</text><line x1="4553.27232115931" y1="4179.304637938945" x2="4553.27232115931" y2="4069.3046379389452" stroke="#94a3b8" stroke-width="1.5"></line><ellipse cx="4553.27232115931" cy="4069.3046379389452" rx="55" ry="20" fill="#f1f5f9" stroke="#475569" stroke-width="1.5"></ellipse><text x="4553.27232115931" y="4069.3046379389452" class="attr-text">dgl_Yorum</text><line x1="4287.343386971293" y1="2937.7115239853288" x2="4225.435961958469" y2="2471.7308985015025" stroke="#0d9488" stroke-width="2"></line><text x="4278.057273219369" y="2857.814430162755" class="card-text">N</text><text x="4234.722075710393" y="2531.6279923240763" class="card-text">1</text><polygon points="4256.389674464881,2674.7212112434154 4306.389674464881,2704.7212112434154 4256.389674464881,2734.7212112434154 4206.389674464881,2704.7212112434154" fill="#ccfbf1" stroke="#0f766e" stroke-width="2"></polygon><text x="4256.389674464881" y="2704.7212112434154" class="rel-text">Sahiptir</text><line x1="5470.6889227394295" y1="1006.938642652842" x2="4287.343386971293" y2="2937.7115239853288" stroke="#0d9488" stroke-width="2"></line><text x="5293.187092374209" y="1286.554574852715" class="card-text">N</text><text x="4464.845217336513" y="2638.095591785456" class="card-text">1</text><polygon points="4879.016154855361,1942.3250833190855 4929.016154855361,1972.3250833190855 4879.016154855361,2002.3250833190855 4829.016154855361,1972.3250833190855" fill="#ccfbf1" stroke="#0f766e" stroke-width="2"></polygon><text x="4879.016154855361" y="1972.3250833190855" class="rel-text">Aittir</text><line x1="3699.6795877233903" y1="3457.4255490095507" x2="4287.343386971293" y2="2937.7115239853288" stroke="#0d9488" stroke-width="2"></line><text x="3787.8291576105757" y="3369.4684452559172" class="card-text">1</text><text x="4199.193817084108" y="3005.668627738962" class="card-text">1</text><polygon points="3993.5114873473412,3167.5685364974397 4043.5114873473412,3197.5685364974397 3993.5114873473412,3227.5685364974397 3943.5114873473412,3197.5685364974397" fill="#ccfbf1" stroke="#0f766e" stroke-width="2"></polygon><text x="3993.5114873473412" y="3197.5685364974397" class="rel-text">Detayıdır</text><line x1="2115.571576502772" y1="3507.9246578010634" x2="3699.6795877233903" y2="3457.4255490095507" stroke="#0d9488" stroke-width="2"></line><text x="2353.1877781858648" y="3490.3497914823365" class="card-text">N</text><text x="3462.0633860402977" y="3455.0004153282775" class="card-text">1</text><polygon points="2907.6255821130812,3452.675103405307 2957.6255821130812,3482.675103405307 2907.6255821130812,3512.675103405307 2857.6255821130812,3482.675103405307" fill="#ccfbf1" stroke="#0f766e" stroke-width="2"></polygon><text x="2907.6255821130812" y="3482.675103405307" class="rel-text">Kullanır</text><line x1="3527.653393367895" y1="1200.0753492678489" x2="5470.6889227394295" y2="1006.938642652842" stroke="#0d9488" stroke-width="2"></line><text x="3819.1087227736252" y="1161.104843275598" class="card-text">N</text><text x="5179.233593333699" y="1025.909148645093" class="card-text">1</text><polygon points="4499.171158053662,1073.5069959603454 4549.171158053662,1103.5069959603454 4499.171158053662,1133.5069959603454 4449.171158053662,1103.5069959603454" fill="#ccfbf1" stroke="#0f766e" stroke-width="2"></polygon><text x="4499.171158053662" y="1103.5069959603454" class="rel-text">Bağlar</text><line x1="3434.332974022374" y1="2096.409401223101" x2="3699.6795877233903" y2="3457.4255490095507" stroke="#0d9488" stroke-width="2"></line><text x="3474.1349660775263" y="2290.5618233910686" class="card-text">N</text><text x="3659.877595668238" y="3243.2731268415832" class="card-text">1</text><polygon points="3567.006280872882,2746.917475116326 3617.006280872882,2776.917475116326 3567.006280872882,2806.917475116326 3517.006280872882,2776.917475116326" fill="#ccfbf1" stroke="#0f766e" stroke-width="2"></polygon><text x="3567.006280872882" y="2776.917475116326" class="rel-text">Atanır</text><line x1="3434.332974022374" y1="2096.409401223101" x2="3527.653393367895" y2="1200.0753492678489" stroke="#0d9488" stroke-width="2"></line><text x="3448.331036924202" y="1951.9592934298134" class="card-text">N</text><text x="3513.655330466067" y="1324.5254570611366" class="card-text">1</text><polygon points="3480.9931836951346,1618.2423752454752 3530.9931836951346,1648.2423752454752 3480.9931836951346,1678.2423752454752 3430.9931836951346,1648.2423752454752" fill="#ccfbf1" stroke="#0f766e" stroke-width="2"></polygon><text x="3480.9931836951346" y="1648.2423752454752" class="rel-text">İzlenir</text><line x1="3434.332974022374" y1="2096.409401223101" x2="2115.571576502772" y2="3507.9246578010634" stroke="#0d9488" stroke-width="2"></line><text x="3236.5187643944337" y="2298.1366897097955" class="card-text">N</text><text x="2313.3857861307124" y="3286.197369314369" class="card-text">1</text><polygon points="2774.952275262573,2772.167029512082 2824.952275262573,2802.167029512082 2774.952275262573,2832.167029512082 2724.952275262573,2802.167029512082" fill="#ccfbf1" stroke="#0f766e" stroke-width="2"></polygon><text x="2774.952275262573" y="2802.167029512082" class="rel-text">Sürülür</text><line x1="4470" y1="1430" x2="3434.332974022374" y2="2096.409401223101" stroke="#0d9488" stroke-width="2"></line><text x="4314.649946103356" y="1519.9614101834652" class="card-text">N</text><text x="3589.683027919018" y="1986.447991039636" class="card-text">1</text><polygon points="3952.166487011187,1727.2047006115506 4008.166487011187,1763.2047006115506 3952.166487011187,1799.2047006115506 3896.166487011187,1763.2047006115506" fill="none" stroke="#0f766e" stroke-width="2"></polygon><polygon points="3952.166487011187,1733.2047006115506 4002.166487011187,1763.2047006115506 3952.166487011187,1793.2047006115506 3902.166487011187,1763.2047006115506" fill="#ccfbf1" stroke="#0f766e" stroke-width="2"></polygon><text x="3952.166487011187" y="1763.2047006115506" class="rel-text">Kaydeder</text><line x1="3871.007538461241" y1="4099.597425685132" x2="4287.343386971293" y2="2937.7115239853288" stroke="#0d9488" stroke-width="2"></line><text x="3933.457915737749" y="3915.3145404301617" class="card-text">1</text><text x="4224.893009694785" y="3101.9944092402993" class="card-text">1</text><polygon points="4079.175462716267,3488.6544748352308 4129.175462716266,3518.6544748352308 4079.175462716267,3548.6544748352308 4029.175462716267,3518.6544748352308" fill="#ccfbf1" stroke="#0f766e" stroke-width="2"></polygon><text x="4079.175462716267" y="3518.6544748352308" class="rel-text">Detayıdır</text><path d="M6850.497312236715,1782.613566402669 Q6950.497312236715,1662.613566402669 6750.497312236715,1782.613566402669" fill="none" stroke="#0d9488" stroke-width="2"></path><polygon points="6880.497312236715,1707.613566402669 6920.497312236715,1732.613566402669 6880.497312236715,1757.613566402669 6840.497312236715,1732.613566402669" fill="#ccfbf1" stroke="#0f766e" stroke-width="2"></polygon><text x="6880.497312236715" y="1732.613566402669" class="rel-text">İçerir</text><line x1="6273.797631375231" y1="2569.832082813887" x2="6800.497312236715" y2="1812.613566402669" stroke="#0d9488" stroke-width="2"></line><text x="6352.802583504454" y="2446.2493053522044" class="card-text">N</text><text x="6721.492360107492" y="1916.1963438643518" class="card-text">1</text><polygon points="6537.147471805973,2161.222824608278 6587.147471805973,2191.222824608278 6537.147471805973,2221.222824608278 6487.147471805973,2191.222824608278" fill="#ccfbf1" stroke="#0f766e" stroke-width="2"></polygon><text x="6537.147471805973" y="2191.222824608278" class="rel-text">Kategorilenir</text><line x1="6267.6663073557065" y1="1859.1926813666823" x2="6273.797631375231" y2="2569.832082813887" stroke="#0d9488" stroke-width="2"></line><text x="6268.586005958635" y="1955.788591583763" class="card-text">N</text><text x="6272.877932772302" y="2453.2361725968062" class="card-text">1</text><polygon points="6270.731969365468,2184.5123820902845 6320.731969365468,2214.5123820902845 6270.731969365468,2244.5123820902845 6220.731969365468,2214.5123820902845" fill="#ccfbf1" stroke="#0f766e" stroke-width="2"></polygon><text x="6270.731969365468" y="2214.5123820902845" class="rel-text">Doldurulur</text><line x1="5399.489773775474" y1="1767.2228210738215" x2="5470.6889227394295" y2="1006.938642652842" stroke="#0d9488" stroke-width="2"></line><text x="5410.169646120067" y="1643.1801943106746" class="card-text">N</text><text x="5460.009050394836" y="1110.981269415989" class="card-text">1</text><polygon points="5435.089348257452,1357.0807318633317 5485.089348257452,1387.0807318633317 5435.089348257452,1417.0807318633317 5385.089348257452,1387.0807318633317" fill="#ccfbf1" stroke="#0f766e" stroke-width="2"></polygon><text x="5435.089348257452" y="1387.0807318633317" class="rel-text">Konumlanır</text><line x1="5641.677072546673" y1="2546.495156370957" x2="5399.489773775474" y2="1767.2228210738215" stroke="#0d9488" stroke-width="2"></line><text x="5605.348977730993" y="2419.604306076387" class="card-text">N</text><text x="5435.8178685911535" y="1874.1136713683918" class="card-text">1</text><polygon points="5520.583423161073,2120.8589887223893 5576.583423161073,2156.8589887223893 5520.583423161073,2192.8589887223893 5464.583423161073,2156.8589887223893" fill="none" stroke="#0f766e" stroke-width="2"></polygon><polygon points="5520.583423161073,2126.8589887223893 5570.583423161073,2156.8589887223893 5520.583423161073,2186.8589887223893 5470.583423161073,2156.8589887223893" fill="#ccfbf1" stroke="#0f766e" stroke-width="2"></polygon><text x="5520.583423161073" y="2156.8589887223893" class="rel-text">Stoklanır</text><line x1="5641.677072546673" y1="2546.495156370957" x2="6267.6663073557065" y2="1859.1926813666823" stroke="#0d9488" stroke-width="2"></line><text x="5735.575457768028" y="2433.3997851203158" class="card-text">N</text><text x="6173.7679221343515" y="1952.2880526173235" class="card-text">1</text><polygon points="5954.67168995119,2172.84391886882 6004.67168995119,2202.84391886882 5954.67168995119,2232.84391886882 5904.67168995119,2202.84391886882" fill="#ccfbf1" stroke="#0f766e" stroke-width="2"></polygon><text x="5954.67168995119" y="2202.84391886882" class="rel-text">Tutulur</text><line x1="6262.129168153766" y1="3238.146400942006" x2="3871.007538461241" y2="4099.597425685132" stroke="#0d9488" stroke-width="2"></line><text x="5903.460923699888" y="3357.364054653475" class="card-text">N</text><text x="4229.675782915119" y="3960.3797719736635" class="card-text">1</text><polygon points="5066.5683533075035,3638.871913313569 5116.5683533075035,3668.871913313569 5066.5683533075035,3698.871913313569 5016.5683533075035,3668.871913313569" fill="#ccfbf1" stroke="#0f766e" stroke-width="2"></polygon><text x="5066.5683533075035" y="3668.871913313569" class="rel-text">Verir</text><line x1="6262.129168153766" y1="3238.146400942006" x2="5470.6889227394295" y2="1006.938642652842" stroke="#0d9488" stroke-width="2"></line><text x="6143.413131341616" y="2893.4652371986313" class="card-text">N</text><text x="5589.40495955158" y="1331.6198063962165" class="card-text">1</text><polygon points="5866.409045446598,2092.542521797424 5916.409045446598,2122.542521797424 5866.409045446598,2152.542521797424 5816.409045446598,2122.542521797424" fill="#ccfbf1" stroke="#0f766e" stroke-width="2"></polygon><text x="5866.409045446598" y="2122.542521797424" class="rel-text">TeslimEdilir</text><line x1="6930.443486281885" y1="2368.0925749871767" x2="6262.129168153766" y2="3238.146400942006" stroke="#0d9488" stroke-width="2"></line><text x="6830.196338562668" y="2488.600648880401" class="card-text">N</text><text x="6362.3763158729835" y="3097.638327048782" class="card-text">1</text><polygon points="6596.286327217826,2767.1194879645914 6652.286327217826,2803.1194879645914 6596.286327217826,2839.1194879645914 6540.286327217826,2803.1194879645914" fill="none" stroke="#0f766e" stroke-width="2"></polygon><polygon points="6596.286327217826,2773.1194879645914 6646.286327217826,2803.1194879645914 6596.286327217826,2833.1194879645914 6546.286327217826,2803.1194879645914" fill="#ccfbf1" stroke="#0f766e" stroke-width="2"></polygon><text x="6596.286327217826" y="2803.1194879645914" class="rel-text">Aittir</text><line x1="6930.443486281885" y1="2368.0925749871767" x2="6273.797631375231" y2="2569.832082813887" stroke="#0d9488" stroke-width="2"></line><text x="6831.946608045887" y="2388.3535011611834" class="card-text">N</text><text x="6372.294509611229" y="2529.5711566398804" class="card-text">1</text><polygon points="6602.1205588285575,2438.962328900532 6652.1205588285575,2468.962328900532 6602.1205588285575,2498.962328900532 6552.1205588285575,2468.962328900532" fill="#ccfbf1" stroke="#0f766e" stroke-width="2"></polygon><text x="6602.1205588285575" y="2468.962328900532" class="rel-text">İçerir</text><line x1="4524.376394097198" y1="2141.4327210909196" x2="3434.332974022374" y2="2096.409401223101" stroke="#0d9488" stroke-width="2"></line><text x="4360.869881085974" y="2124.679223110747" class="card-text">N</text><text x="3597.8394870335974" y="2093.162899203274" class="card-text">1</text><polygon points="3979.3546840597855,2082.9210611570106 4035.3546840597855,2118.9210611570106 3979.3546840597855,2154.9210611570106 3923.3546840597855,2118.9210611570106" fill="none" stroke="#0f766e" stroke-width="2"></polygon><polygon points="3979.3546840597855,2088.9210611570106 4029.3546840597855,2118.9210611570106 3979.3546840597855,2148.9210611570106 3929.3546840597855,2118.9210611570106" fill="#ccfbf1" stroke="#0f766e" stroke-width="2"></polygon><text x="3979.3546840597855" y="2118.9210611570106" class="rel-text">Gerçekleşir</text><line x1="4524.376394097198" y1="2141.4327210909196" x2="6262.129168153766" y2="3238.146400942006" stroke="#0d9488" stroke-width="2"></line><text x="4785.039310205683" y="2295.9397730685823" class="card-text">N</text><text x="6001.46625204528" y="3063.6393489643433" class="card-text">1</text><polygon points="5393.252781125482,2659.789561016463 5443.252781125482,2689.789561016463 5393.252781125482,2719.789561016463 5343.252781125482,2689.789561016463" fill="#ccfbf1" stroke="#0f766e" stroke-width="2"></polygon><text x="5393.252781125482" y="2689.789561016463" class="rel-text">Bağlıdır</text><line x1="4524.376394097198" y1="2141.4327210909196" x2="6267.6663073557065" y2="1859.1926813666823" stroke="#0d9488" stroke-width="2"></line><text x="4785.869881085974" y="2089.096715132284" class="card-text">N</text><text x="6006.17282036693" y="1891.5286873253178" class="card-text">1</text><polygon points="5396.0213507264525,1970.312701228801 5446.0213507264525,2000.312701228801 5396.0213507264525,2030.312701228801 5346.0213507264525,2000.312701228801" fill="#ccfbf1" stroke="#0f766e" stroke-width="2"></polygon><text x="5396.0213507264525" y="2000.312701228801" class="rel-text">Takaslanır</text><line x1="5235.726579701074" y1="3336.2475852543903" x2="6262.129168153766" y2="3238.146400942006" stroke="#0d9488" stroke-width="2"></line><text x="5389.686967968978" y="3311.5324076075326" class="card-text">1</text><text x="6108.168779885862" y="3242.8615785888637" class="card-text">1</text><polygon points="5748.92787392742,3257.196993098198 5798.92787392742,3287.196993098198 5748.92787392742,3317.196993098198 5698.92787392742,3287.196993098198" fill="#ccfbf1" stroke="#0f766e" stroke-width="2"></polygon><text x="5748.92787392742" y="3287.196993098198" class="rel-text">Kesilir</text><line x1="5410.469314257509" y1="2831.007538461241" x2="5235.726579701074" y2="3336.2475852543903" stroke="#0d9488" stroke-width="2"></line><text x="5384.257904074044" y="2896.793545480213" class="card-text">N</text><text x="5261.937989884539" y="3250.461578235418" class="card-text">1</text><polygon points="5323.097946979291,3053.6275618578156 5373.097946979291,3083.6275618578156 5323.097946979291,3113.6275618578156 5273.097946979291,3083.6275618578156" fill="#ccfbf1" stroke="#0f766e" stroke-width="2"></polygon><text x="5323.097946979291" y="3083.6275618578156" class="rel-text">Ödenir</text><line x1="5410.469314257509" y1="2831.007538461241" x2="4287.343386971293" y2="2937.7115239853288" stroke="#0d9488" stroke-width="2"></line><text x="5242.000425164576" y="2837.013136289854" class="card-text">N</text><text x="4455.812276064225" y="2911.7059261567156" class="card-text">1</text><polygon points="4848.906350614401,2854.3595312232846 4898.906350614401,2884.3595312232846 4848.906350614401,2914.3595312232846 4798.906350614401,2884.3595312232846" fill="#ccfbf1" stroke="#0f766e" stroke-width="2"></polygon><text x="4848.906350614401" y="2884.3595312232846" class="rel-text">TahsilEder</text><line x1="3716.5360683379745" y1="2426.340153172655" x2="4287.343386971293" y2="2937.7115239853288" stroke="#0d9488" stroke-width="2"></line><text x="3802.157166132972" y="2493.045858794556" class="card-text">N</text><text x="4201.722289176295" y="2851.005818363428" class="card-text">1</text><polygon points="4001.9397276546333,2646.025838578992 4057.9397276546333,2682.025838578992 4001.9397276546333,2718.025838578992 3945.9397276546333,2682.025838578992" fill="none" stroke="#0f766e" stroke-width="2"></polygon><polygon points="4001.9397276546333,2652.025838578992 4051.9397276546333,2682.025838578992 4001.9397276546333,2712.025838578992 3951.9397276546333,2682.025838578992" fill="#ccfbf1" stroke="#0f766e" stroke-width="2"></polygon><text x="4001.9397276546333" y="2682.025838578992" class="rel-text">Alır</text><line x1="4865.375661337452" y1="3127.782568590573" x2="4287.343386971293" y2="2937.7115239853288" stroke="#0d9488" stroke-width="2"></line><text x="4778.670820182528" y="3089.2719118997866" class="card-text">N</text><text x="4374.048228126217" y="2956.2221806761154" class="card-text">1</text><polygon points="4576.359524154372,3002.747046287951 4626.359524154372,3032.747046287951 4576.359524154372,3062.747046287951 4526.359524154372,3032.747046287951" fill="#ccfbf1" stroke="#0f766e" stroke-width="2"></polygon><text x="4576.359524154372" y="3032.747046287951" class="rel-text">Açar</text><line x1="4733.552194917687" y1="3517.715828647933" x2="4865.375661337452" y2="3127.782568590573" stroke="#0d9488" stroke-width="2"></line><text x="4753.3257148806515" y="3449.225839639329" class="card-text">N</text><text x="4845.6021413744875" y="3176.272557599177" class="card-text">1</text><polygon points="4799.4639281275695,3286.749198619253 4855.4639281275695,3322.749198619253 4799.4639281275695,3358.749198619253 4743.4639281275695,3322.749198619253" fill="none" stroke="#0f766e" stroke-width="2"></polygon><polygon points="4799.4639281275695,3292.749198619253 4849.4639281275695,3322.749198619253 4799.4639281275695,3352.749198619253 4749.4639281275695,3322.749198619253" fill="#ccfbf1" stroke="#0f766e" stroke-width="2"></polygon><text x="4799.4639281275695" y="3322.749198619253" class="rel-text">İçerir</text><line x1="4733.552194917687" y1="3517.715828647933" x2="4287.343386971293" y2="2937.7115239853288" stroke="#0d9488" stroke-width="2"></line><text x="4666.620873725728" y="3420.7151829485424" class="card-text">N</text><text x="4354.2747081632515" y="3014.7121696847194" class="card-text">1</text><polygon points="4510.44779094449,3197.713676316631 4560.44779094449,3227.713676316631 4510.44779094449,3257.713676316631 4460.44779094449,3227.713676316631" fill="#ccfbf1" stroke="#0f766e" stroke-width="2"></polygon><text x="4510.44779094449" y="3227.713676316631" class="rel-text">Yazar</text><line x1="4553.27232115931" y1="4179.304637938945" x2="6262.129168153766" y2="3238.146400942006" stroke="#0d9488" stroke-width="2"></line><text x="4809.600848208479" y="4028.1309023894046" class="card-text">1</text><text x="6005.800641104597" y="3369.3201364915467" class="card-text">1</text><polygon points="5407.7007446565385,3678.7255194404756 5457.7007446565385,3708.7255194404756 5407.7007446565385,3738.7255194404756 5357.7007446565385,3708.7255194404756" fill="#ccfbf1" stroke="#0f766e" stroke-width="2"></polygon><text x="5407.7007446565385" y="3708.7255194404756" class="rel-text">Puanlanır</text><line x1="4553.27232115931" y1="4179.304637938945" x2="4287.343386971293" y2="2937.7115239853288" stroke="#0d9488" stroke-width="2"></line><text x="4513.382981031107" y="3983.065670845903" class="card-text">N</text><text x="4327.232727099496" y="3113.950491078371" class="card-text">1</text><polygon points="4420.307854065301,3528.508080962137 4470.307854065301,3558.508080962137 4420.307854065301,3588.508080962137 4370.307854065301,3558.508080962137" fill="#ccfbf1" stroke="#0f766e" stroke-width="2"></polygon><text x="4420.307854065301" y="3558.508080962137" class="rel-text">Yapar</text><line x1="3091.141018346523" y1="2819.339075239776" x2="4287.343386971293" y2="2937.7115239853288" stroke="#0d9488" stroke-width="2"></line><text x="3270.5713736402386" y="2827.0949425516087" class="card-text">N</text><text x="4107.913031677577" y="2909.955656673496" class="card-text">1</text><polygon points="3689.242202658908,2842.5252996125523 3745.242202658908,2878.5252996125523 3689.242202658908,2914.5252996125523 3633.242202658908,2878.5252996125523" fill="none" stroke="#0f766e" stroke-width="2"></polygon><polygon points="3689.242202658908,2848.5252996125523 3739.242202658908,2878.5252996125523 3689.242202658908,2908.5252996125523 3639.242202658908,2878.5252996125523" fill="#ccfbf1" stroke="#0f766e" stroke-width="2"></polygon><text x="3689.242202658908" y="2878.5252996125523" class="rel-text">İşler</text><line x1="3080.118769342672" y1="3279.188376704078" x2="4287.343386971293" y2="2937.7115239853288" stroke="#0d9488" stroke-width="2"></line><text x="3261.202461986965" y="3217.966848796266" class="card-text">N</text><text x="4106.259694326999" y="2978.933051893141" class="card-text">1</text><polygon points="3683.731078156982,3078.449950344703 3733.731078156982,3108.449950344703 3683.731078156982,3138.449950344703 3633.731078156982,3108.449950344703" fill="#ccfbf1" stroke="#0f766e" stroke-width="2"></polygon><text x="3683.731078156982" y="3108.449950344703" class="rel-text">Oluşturur</text></g>
  <rect x="4155.435961958469" y="2441.7308985015025" width="140" height="60" rx="4" fill="#bfdbfe" stroke="#3b82f6" stroke-width="2"/><text x="4225.435961958469" y="2476.7308985015025" fill="#1e3a8a" font-size="14" font-weight="bold" text-anchor="middle" dominant-baseline="middle">Rol</text><rect x="4217.343386971293" y="2907.7115239853288" width="140" height="60" rx="4" fill="#bfdbfe" stroke="#3b82f6" stroke-width="2"/><text x="4287.343386971293" y="2942.7115239853288" fill="#1e3a8a" font-size="14" font-weight="bold" text-anchor="middle" dominant-baseline="middle">Kullanici</text><rect x="5400.6889227394295" y="976.938642652842" width="140" height="60" rx="4" fill="#bfdbfe" stroke="#3b82f6" stroke-width="2"/><text x="5470.6889227394295" y="1011.938642652842" fill="#1e3a8a" font-size="14" font-weight="bold" text-anchor="middle" dominant-baseline="middle">Adres</text><rect x="3801.007538461241" y="4069.5974256851323" width="140" height="60" rx="4" fill="#bfdbfe" stroke="#3b82f6" stroke-width="2"/><text x="3871.007538461241" y="4104.597425685132" fill="#1e3a8a" font-size="14" font-weight="bold" text-anchor="middle" dominant-baseline="middle">Musteri</text><rect x="3646.5360683379745" y="2396.340153172655" width="140" height="60" rx="4" fill="#dbeafe" stroke="#3b82f6" stroke-width="4"/><text x="3716.5360683379745" y="2431.340153172655" fill="#1e3a8a" font-size="14" font-weight="bold" text-anchor="middle" dominant-baseline="middle">Bildirim</text><rect x="3021.141018346523" y="2789.339075239776" width="140" height="60" rx="4" fill="#dbeafe" stroke="#3b82f6" stroke-width="4"/><text x="3091.141018346523" y="2824.339075239776" fill="#1e3a8a" font-size="14" font-weight="bold" text-anchor="middle" dominant-baseline="middle">Sistem_Log</text><rect x="3629.6795877233903" y="3427.4255490095507" width="140" height="60" rx="4" fill="#bfdbfe" stroke="#3b82f6" stroke-width="2"/><text x="3699.6795877233903" y="3462.4255490095507" fill="#1e3a8a" font-size="14" font-weight="bold" text-anchor="middle" dominant-baseline="middle">Surucu_Profil</text><rect x="2045.5715765027721" y="3477.9246578010634" width="140" height="60" rx="4" fill="#bfdbfe" stroke="#3b82f6" stroke-width="2"/><text x="2115.571576502772" y="3512.9246578010634" fill="#1e3a8a" font-size="14" font-weight="bold" text-anchor="middle" dominant-baseline="middle">Arac</text><rect x="3457.653393367895" y="1170.0753492678489" width="140" height="60" rx="4" fill="#bfdbfe" stroke="#3b82f6" stroke-width="2"/><text x="3527.653393367895" y="1205.0753492678489" fill="#1e3a8a" font-size="14" font-weight="bold" text-anchor="middle" dominant-baseline="middle">Guzergah</text><rect x="3364.332974022374" y="2066.409401223101" width="140" height="60" rx="4" fill="#bfdbfe" stroke="#3b82f6" stroke-width="2"/><text x="3434.332974022374" y="2101.409401223101" fill="#1e3a8a" font-size="14" font-weight="bold" text-anchor="middle" dominant-baseline="middle">Surucu_Rota</text><rect x="4400" y="1400" width="140" height="60" rx="4" fill="#dbeafe" stroke="#3b82f6" stroke-width="4"/><text x="4470" y="1435" fill="#1e3a8a" font-size="14" font-weight="bold" text-anchor="middle" dominant-baseline="middle">Konum_Takip</text><rect x="4454.376394097198" y="2111.4327210909196" width="140" height="60" rx="4" fill="#dbeafe" stroke="#3b82f6" stroke-width="4"/><text x="4524.376394097198" y="2146.4327210909196" fill="#1e3a8a" font-size="14" font-weight="bold" text-anchor="middle" dominant-baseline="middle">Varil_Takas</text><rect x="6730.497312236715" y="1782.613566402669" width="140" height="60" rx="4" fill="#bfdbfe" stroke="#3b82f6" stroke-width="2"/><text x="6800.497312236715" y="1817.613566402669" fill="#1e3a8a" font-size="14" font-weight="bold" text-anchor="middle" dominant-baseline="middle">Urun_Kategori</text><rect x="6203.797631375231" y="2539.832082813887" width="140" height="60" rx="4" fill="#bfdbfe" stroke="#3b82f6" stroke-width="2"/><text x="6273.797631375231" y="2574.832082813887" fill="#1e3a8a" font-size="14" font-weight="bold" text-anchor="middle" dominant-baseline="middle">Urun</text><rect x="6197.6663073557065" y="1829.1926813666823" width="140" height="60" rx="4" fill="#bfdbfe" stroke="#3b82f6" stroke-width="2"/><text x="6267.6663073557065" y="1864.1926813666823" fill="#1e3a8a" font-size="14" font-weight="bold" text-anchor="middle" dominant-baseline="middle">Varil</text><rect x="5329.489773775474" y="1737.2228210738215" width="140" height="60" rx="4" fill="#bfdbfe" stroke="#3b82f6" stroke-width="2"/><text x="5399.489773775474" y="1772.2228210738215" fill="#1e3a8a" font-size="14" font-weight="bold" text-anchor="middle" dominant-baseline="middle">Depo</text><rect x="5571.677072546673" y="2516.495156370957" width="140" height="60" rx="4" fill="#dbeafe" stroke="#3b82f6" stroke-width="4"/><text x="5641.677072546673" y="2551.495156370957" fill="#1e3a8a" font-size="14" font-weight="bold" text-anchor="middle" dominant-baseline="middle">Depo_Stok</text><rect x="3010.118769342672" y="3249.188376704078" width="140" height="60" rx="4" fill="#bfdbfe" stroke="#3b82f6" stroke-width="2"/><text x="3080.118769342672" y="3284.188376704078" fill="#1e3a8a" font-size="14" font-weight="bold" text-anchor="middle" dominant-baseline="middle">Kampanya</text><rect x="6192.129168153766" y="3208.146400942006" width="140" height="60" rx="4" fill="#bfdbfe" stroke="#3b82f6" stroke-width="2"/><text x="6262.129168153766" y="3243.146400942006" fill="#1e3a8a" font-size="14" font-weight="bold" text-anchor="middle" dominant-baseline="middle">Siparis</text><rect x="6860.443486281885" y="2338.0925749871767" width="140" height="60" rx="4" fill="#dbeafe" stroke="#3b82f6" stroke-width="4"/><text x="6930.443486281885" y="2373.0925749871767" fill="#1e3a8a" font-size="14" font-weight="bold" text-anchor="middle" dominant-baseline="middle">Siparis_Kalem</text><rect x="5165.726579701074" y="3306.2475852543903" width="140" height="60" rx="4" fill="#bfdbfe" stroke="#3b82f6" stroke-width="2"/><text x="5235.726579701074" y="3341.2475852543903" fill="#1e3a8a" font-size="14" font-weight="bold" text-anchor="middle" dominant-baseline="middle">Fatura</text><rect x="5340.469314257509" y="2801.007538461241" width="140" height="60" rx="4" fill="#bfdbfe" stroke="#3b82f6" stroke-width="2"/><text x="5410.469314257509" y="2836.007538461241" fill="#1e3a8a" font-size="14" font-weight="bold" text-anchor="middle" dominant-baseline="middle">Odeme</text><rect x="4795.375661337452" y="3097.782568590573" width="140" height="60" rx="4" fill="#bfdbfe" stroke="#3b82f6" stroke-width="2"/><text x="4865.375661337452" y="3132.782568590573" fill="#1e3a8a" font-size="14" font-weight="bold" text-anchor="middle" dominant-baseline="middle">Destek_Talep</text><rect x="4663.552194917687" y="3487.715828647933" width="140" height="60" rx="4" fill="#dbeafe" stroke="#3b82f6" stroke-width="4"/><text x="4733.552194917687" y="3522.715828647933" fill="#1e3a8a" font-size="14" font-weight="bold" text-anchor="middle" dominant-baseline="middle">Destek_Mesaj</text><rect x="4483.27232115931" y="4149.304637938945" width="140" height="60" rx="4" fill="#bfdbfe" stroke="#3b82f6" stroke-width="2"/><text x="4553.27232115931" y="4184.304637938945" fill="#1e3a8a" font-size="14" font-weight="bold" text-anchor="middle" dominant-baseline="middle">Degerlendirme</text></svg>